<svg width="46.000000" height="13.000000" viewBox="0 0 46 13" fill="none" xmlns="http://www.w3.org/2000/svg" xmlns:xlink="http://www.w3.org/1999/xlink">
	<desc>
			Created with Pixso.
	</desc>
	<defs>
		<clipPath id="clip17_180">
			<rect id="Frame" rx="-0.500000" width="45.000000" height="12.000000" transform="translate(0.500000 0.500000)" fill="white" fill-opacity="0"/>
		</clipPath>
	</defs>
	<rect id="Frame" rx="-0.500000" width="45.000000" height="12.000000" transform="translate(0.500000 0.500000)" fill="#FFFFFF" fill-opacity="0"/>
	<g clip-path="url(#clip17_180)">
		<path id="Vector" d="M16.42 12.98L12.32 12.98L12.32 5.36L12.05 5.36C11.29 7.9 10.53 10.44 9.77 12.98L6.66 12.98C5.9 10.44 5.14 7.9 4.38 5.35L4.11 5.35C4.1 5.98 4.11 6.62 4.11 7.25C4.11 7.88 4.11 8.51 4.11 9.15C4.11 9.78 4.11 10.42 4.11 11.05C4.11 11.68 4.11 12.32 4.11 12.94C3.95 13 0.24 13.02 0 12.96L0 0.02C0.08 0.01 0.17 0 0.25 0C1.52 0 2.79 0 4.05 0C4.23 0 4.4 0 4.58 0C5.39 0.03 5.91 0.48 6.22 1.22C6.36 1.55 6.46 1.91 6.56 2.26C7.04 3.99 7.52 5.72 8 7.45C8.02 7.52 8.05 7.58 8.07 7.66L8.36 7.66C8.38 7.58 8.41 7.5 8.43 7.42C8.98 5.5 9.52 3.57 10.06 1.65C10.18 1.22 10.37 0.84 10.69 0.53C11 0.22 11.38 0.05 11.8 0.02C12.06 0 12.32 0 12.58 0C13.77 0 14.97 0 16.17 0L16.4 0C16.45 0.18 16.46 12.74 16.42 12.98L16.42 12.98Z" fill="#FFFFFF" fill-opacity="1.000000" fill-rule="nonzero"/>
		<path id="Vector" d="M31.11 12.98L26.94 12.98L26.94 5.36L26.61 5.36C26.58 5.42 26.54 5.49 26.51 5.56C25.64 7.55 24.78 9.55 23.91 11.55C23.58 12.31 23.04 12.78 22.25 12.96C22.17 12.98 22.09 12.99 22.01 12.99C20.8 12.99 19.58 12.99 18.37 12.99C18.31 12.99 18.24 12.98 18.16 12.98L18.16 0.05C18.3 -0.01 21.98 -0.03 22.34 0.03C22.34 0.11 22.35 0.21 22.35 0.3C22.35 2.66 22.35 5.01 22.35 7.36L22.35 7.64L22.66 7.64C22.69 7.58 22.73 7.5 22.76 7.43C23.64 5.45 24.52 3.46 25.4 1.48C25.65 0.91 26 0.45 26.56 0.18C26.81 0.06 27.06 0 27.33 0C28.51 0.01 29.69 0 30.87 0C30.95 0 31.03 0 31.1 0C31.15 0.18 31.16 12.74 31.11 12.98L31.11 12.98Z" fill="#FFFFFF" fill-opacity="1.000000" fill-rule="nonzero"/>
		<path id="Vector" d="M45.9 5.36C45.82 5.37 45.74 5.37 45.67 5.37C43.2 5.37 40.73 5.38 38.26 5.37C37.74 5.36 37.21 5.37 36.7 5.23C35.91 5.02 35.22 4.63 34.61 4.08C33.79 3.33 33.19 2.42 32.85 1.34C32.72 0.92 32.62 0.5 32.6 0.03C32.68 0.02 32.76 0.02 32.83 0.02C34.67 0.02 36.51 0.02 38.35 0.01C39.37 0.01 40.4 0.01 41.43 0.01C42.22 0.01 42.98 0.17 43.69 0.57C44.94 1.27 45.68 2.36 45.93 3.81C46.02 4.29 46.02 4.77 45.93 5.26C45.93 5.28 45.92 5.31 45.9 5.36L45.9 5.36Z" fill="#808080" fill-opacity="1.000000" fill-rule="evenodd"/>
		<path id="Vector" d="M45.62 6.2C45.51 6.56 45.34 6.87 45.13 7.16C44.44 8.12 43.5 8.69 42.39 8.98C41.98 9.08 41.56 9.12 41.13 9.12C39.77 9.11 38.41 9.12 37.05 9.12C36.97 9.12 36.89 9.12 36.79 9.12L36.79 12.94C36.63 13 33.03 13.01 32.79 12.96L32.79 6.22C32.8 6.21 32.8 6.2 32.81 6.2C32.81 6.2 32.82 6.19 32.82 6.19C32.85 6.18 32.88 6.17 32.9 6.17C37.12 6.17 41.33 6.17 45.54 6.18C45.56 6.18 45.58 6.19 45.63 6.2L45.62 6.2Z" fill="#FFFFFF" fill-opacity="1.000000" fill-rule="nonzero"/>
	</g>
</svg>
