<svg width="45.000000" height="14.000000" viewBox="0 0 45 14" fill="none" xmlns="http://www.w3.org/2000/svg" xmlns:xlink="http://www.w3.org/1999/xlink">
	<desc>
			Created with Pixso.
	</desc>
	<defs>
		<clipPath id="clip17_189">
			<rect id="Frame" rx="-0.500000" width="44.000000" height="13.000000" transform="translate(0.500000 0.500000)" fill="white" fill-opacity="0"/>
		</clipPath>
	</defs>
	<rect id="Frame" rx="-0.500000" width="44.000000" height="13.000000" transform="translate(0.500000 0.500000)" fill="#FFFFFF" fill-opacity="0"/>
	<g clip-path="url(#clip17_189)">
		<path id="Vector" d="M44.99 13.72L44.99 13.8L41.62 13.8C41.47 13.12 41.33 12.45 41.19 11.78L36.5 11.78C36.25 12.45 35.99 13.13 35.74 13.79L31.92 13.79C31.94 13.74 31.96 13.7 31.98 13.66C33.4 10.39 34.82 7.12 36.25 3.85C36.62 2.99 36.99 2.14 37.37 1.28C37.52 0.95 37.74 0.67 38.08 0.49C38.41 0.3 38.77 0.24 39.15 0.24C40.08 0.24 41.02 0.24 41.96 0.24C41.99 0.24 42.02 0.25 42.06 0.25C42.37 1.7 42.68 3.14 43 4.58C43.32 6.07 43.64 7.57 43.97 9.06C44.26 10.42 44.56 11.79 44.85 13.15C44.9 13.34 44.95 13.53 44.99 13.72L44.99 13.72ZM37.56 8.99L40.58 8.99C40.22 7.3 39.86 5.62 39.5 3.92C38.85 5.62 38.21 7.3 37.56 8.99Z" fill="#FFFFFF" fill-opacity="1.000000" fill-rule="nonzero"/>
		<path id="Vector" d="M30.02 0C30.16 0.01 30.29 0.03 30.42 0.05C31.18 0.12 31.92 0.29 32.64 0.55C32.66 0.55 32.68 0.56 32.71 0.58C32.55 1.54 32.38 2.52 32.22 3.49C31.96 3.39 31.71 3.28 31.46 3.19C30.54 2.87 29.6 2.77 28.64 2.87C28.23 2.91 27.84 3.02 27.5 3.27C27.31 3.41 27.16 3.59 27.1 3.82C27.02 4.12 27.11 4.37 27.33 4.58C27.51 4.76 27.72 4.93 27.95 5.06C28.41 5.32 28.89 5.56 29.37 5.79C30.05 6.13 30.69 6.52 31.23 7.06C31.73 7.57 32.06 8.17 32.15 8.87C32.26 9.65 32.13 10.4 31.8 11.12C31.35 12.08 30.59 12.76 29.62 13.23C28.93 13.57 28.2 13.78 27.44 13.88C27.06 13.93 26.67 13.96 26.28 14C26.02 14 25.76 14 25.49 14C24.44 13.95 23.4 13.81 22.4 13.5C22.19 13.44 21.99 13.36 21.78 13.29C21.95 12.27 22.12 11.26 22.29 10.24C22.53 10.35 22.76 10.45 22.99 10.55C23.63 10.82 24.28 11.03 24.98 11.11C25.64 11.18 26.3 11.23 26.96 11.1C27.27 11.03 27.56 10.94 27.82 10.77C28.19 10.52 28.41 10.19 28.37 9.74C28.35 9.52 28.25 9.34 28.11 9.18C27.9 8.94 27.63 8.76 27.35 8.61C26.91 8.37 26.46 8.16 26.01 7.92C25.33 7.57 24.69 7.17 24.17 6.61C23.49 5.89 23.2 5.05 23.32 4.07C23.46 2.87 24.07 1.93 25.07 1.22C25.85 0.66 26.73 0.33 27.67 0.16C28.02 0.1 28.38 0.07 28.73 0.02C28.75 0.02 28.77 0 28.79 0C29.2 0 29.61 0 30.02 0Z" fill="#FFFFFF" fill-opacity="1.000000" fill-rule="nonzero"/>
		<path id="Vector" d="M0 0.45C0.02 0.39 0.04 0.32 0.06 0.24C0.11 0.24 0.16 0.24 0.21 0.24C2.08 0.24 3.95 0.24 5.83 0.24C6.1 0.24 6.38 0.27 6.64 0.35C7.16 0.52 7.45 0.87 7.56 1.37C7.7 2.01 7.83 2.64 7.96 3.28C8.14 4.17 8.32 5.06 8.51 5.96C8.6 6.43 8.7 6.9 8.8 7.37C8.81 7.41 8.8 7.45 8.81 7.49C8.79 7.46 8.77 7.42 8.75 7.39C8.49 6.73 8.14 6.1 7.74 5.51C6.86 4.24 5.75 3.21 4.44 2.37C4.24 2.25 4.04 2.14 3.84 2.02C3.61 1.9 3.39 1.77 3.17 1.66C2.19 1.18 1.17 0.82 0.12 0.55C0.08 0.54 0.04 0.54 0 0.54C0 0.51 0 0.48 0 0.45Z" fill="#808080" fill-opacity="1.000000" fill-rule="evenodd"/>
		<path id="Vector" d="M3.84 2.02C4.04 2.14 4.24 2.25 4.44 2.37C5.75 3.21 6.87 4.24 7.74 5.51C8.14 6.1 8.48 6.73 8.75 7.39C8.77 7.42 8.79 7.46 8.81 7.49C8.92 8.01 9.03 8.52 9.14 9.04C9.17 9.18 9.2 9.31 9.24 9.48C10.43 6.39 11.62 3.32 12.8 0.25L16.66 0.25C16.59 0.41 16.52 0.57 16.45 0.74C14.63 5.03 12.82 9.33 11 13.63C10.92 13.82 10.96 13.78 10.76 13.78C9.59 13.79 8.41 13.79 7.24 13.79L7.08 13.79C7.01 13.53 6.93 13.28 6.86 13.03C5.93 9.64 5 6.25 4.06 2.86C3.99 2.58 3.91 2.3 3.84 2.02L3.84 2.02Z" fill="#FFFFFF" fill-opacity="1.000000" fill-rule="nonzero"/>
		<path id="Vector" d="M19.5 13.8L15.85 13.8C16.61 9.28 17.37 4.76 18.13 0.25L21.78 0.25C21.02 4.76 20.26 9.28 19.5 13.8Z" fill="#FFFFFF" fill-opacity="1.000000" fill-rule="nonzero"/>
	</g>
</svg>
